<svg xmlns="http://www.w3.org/2000/svg" width="1200" height="620" viewBox="0 0 1200 620" role="img" aria-labelledby="title desc">
  <title id="title">Dog Weight Guide Cover</title>
  <desc id="desc">Decorative cover image used for dog weight and puppy growth blog posts</desc>
  <defs>
    <linearGradient id="cover" x1="0" y1="0" x2="1" y2="1">
      <stop offset="0%" stop-color="#e9f5ff"/>
      <stop offset="100%" stop-color="#fff0dc"/>
    </linearGradient>
  </defs>
  <rect width="1200" height="620" fill="url(#cover)"/>
  <g transform="translate(84 78)">
    <rect width="560" height="464" rx="30" fill="#ffffff" stroke="#d3e3f0"/>
    <rect x="36" y="38" width="208" height="26" rx="13" fill="#dff0ff"/>
    <rect x="36" y="84" width="486" height="56" rx="12" fill="#f8fcff" stroke="#d5e4f0"/>
    <rect x="36" y="154" width="486" height="56" rx="12" fill="#f8fcff" stroke="#d5e4f0"/>
    <rect x="36" y="224" width="486" height="56" rx="12" fill="#f8fcff" stroke="#d5e4f0"/>
    <rect x="36" y="314" width="210" height="62" rx="14" fill="#0f5b8d"/>
  </g>
  <g transform="translate(724 112)">
    <circle cx="180" cy="180" r="170" fill="#f9d8ac"/>
    <ellipse cx="126" cy="170" rx="25" ry="33" fill="#202f3f"/>
    <ellipse cx="236" cy="170" rx="25" ry="33" fill="#202f3f"/>
    <ellipse cx="182" cy="220" rx="28" ry="17" fill="#18212c"/>
    <path d="M148 246c18 18 48 18 66 0" stroke="#18212c" stroke-width="10" fill="none" stroke-linecap="round"/>
    <ellipse cx="98" cy="108" rx="38" ry="56" fill="#f0b56f"/>
    <ellipse cx="266" cy="108" rx="38" ry="56" fill="#f0b56f"/>
    <rect x="86" y="320" width="58" height="140" rx="24" fill="#f0b56f"/>
    <rect x="158" y="320" width="58" height="140" rx="24" fill="#f0b56f"/>
    <rect x="230" y="320" width="58" height="140" rx="24" fill="#f0b56f"/>
  </g>
</svg>
